:FULLY-SPECIFIED
:FORCE-ALL-JOINTS-BE-3DOF
:DEGREES
713
root 5.51387 21.4533 7.36188 0 0 0
lfemur 0 0 0
ltibia 66.4653 -0 0
lfoot 7.47754 -9.32144 0.00208274
ltoes 29.8677 -0 0
rfemur 0 0 0
rtibia 0 0 0
rfoot 21.1091 -20.1589 -0.0521659
rtoes 42.0619 -0 0
lowerback 0 0 0
upperback -1.33456 -1.07152 -1.58793
thorax -4.70866 -0.510769 -0.537428
lowerneck 0 0 0
upperneck -0.335012 -8.5167 4.90826
head 1.39761 -4.19511 1.65061
lclavicle 0 0 0
lhumerus 0 0 0
lradius 0 0 0
lwrist 0 0 0
lhand 0 0 0
lfingers 0 0 0
lthumb 4.20858 26.5208 -0.000289286
rclavicle 0 0 0
rhumerus 0 0 0
rradius 99.2956 -0 0
rwrist -9.89439 0 0
rhand 0 0 0
rfingers 0 0 0
rthumb 0 0 0
714
root 5.50512 21.5043 7.58039 0 0 0
lfemur 0 0 0
ltibia 65.4696 -0 0
lfoot 7.4455 -9.41106 0.000545156
ltoes 29.8425 -0 0
rfemur 0 0 0
rtibia 0 0 0
rfoot 21.298 -20.5335 -0.0136508
rtoes 42.7071 -0 0
lowerback 0 0 0
upperback -1.32657 -0.99108 -1.57294
thorax -4.72859 -0.470466 -0.532345
lowerneck 0 0 0
upperneck -0.408337 -8.54825 4.90197
head 1.37758 -4.21246 1.65404
lclavicle 0 0 0
lhumerus 0 0 0
lradius 0 0 0
lwrist 0 0 0
lhand 0 0 0
lfingers 0 0 0
lthumb 4.20011 26.5679 -7.57214e-05
rclavicle 0 0 0
rhumerus 0 0 0
rradius 99.2664 -0 0
rwrist -9.87611 0 0
rhand 0 0 0
rfingers 0 0 0
rthumb 0 0 0
715
root 5.49097 21.5295 7.79601 -140.605 -87.2103 157.04
lfemur -33.5571 -14.4896 8.51967
ltibia 65.1241 0 0
lfoot 7.43438 -9.44215 0
ltoes 29.8338 0 0
rfemur -33.8349 -1.58686 -1.91882
rtibia 97.0122 0 0
rfoot 21.3635 -20.6634 0
rtoes 42.9309 0 0
lowerback 5.99658 -0.553404 -1.77502
upperback -1.3238 -0.963173 -1.56773
thorax -4.7355 -0.456483 -0.530585
lowerneck -6.88249 -6.45178 -2.43303
upperneck -0.433777 -8.5592 4.89979
head 1.37063 -4.21848 1.65523
lclavicle 1.2921e-14 3.18055e-14 0
lhumerus -1.77093 -20.2407 16.623
lradius 44.6521 0 0
lwrist 22.5382 0 0
lhand -22.2191 -3.35407 0
lfingers 7.12502 0 0
lthumb 4.19717 26.5843 0
rclavicle 1.2921e-14 3.18055e-14 0
rhumerus -10.8552 -1.84384 -27.5558
rradius 99.2563 0 0
rwrist -9.86977 0 0
rhand -26.5547 -33.9151 0
rfingers 7.12502 0 0
rthumb 0.0100137 -63.895 0
716
root 5.47163 21.5285 8.01054 -150.714 -85.8164 167.373
lfemur 0 0 0
ltibia 0 0 0
lfoot 0 0 0
ltoes 29.5331 -0 0
rfemur 0 0 0
rtibia 0 0 0
rfoot 0 0 0
rtoes 42.5692 -0 0
lowerback 0 0 0
upperback -1.36464 -0.662758 -1.55837
thorax 0 0 0
lowerneck -6.91598 -6.48354 -2.40317
upperneck 0 0 0
head 0 0 0
lclavicle 0 0 0
lhumerus 0 0 0
lradius 0 0 0
lwrist 0 0 0
lhand 0 0 0
lfingers 0 0 0
lthumb 4.2038 26.561 -4.65234e-05
rclavicle 0 0 0
rhumerus 0 0 0
rradius 0 0 0
rwrist -9.81626 0 0
rhand -26.6452 -33.8335 -0.00222406
rfingers 0 0 0
rthumb 0 0 0
717
root 5.44781 21.5037 8.22597 -156.6 -83.9315 173.547
lfemur 0 0 0
ltibia 0 0 0
lfoot 0 0 0
ltoes 29.1459 -0 0
rfemur 0 0 0
rtibia 0 0 0
rfoot 0 0 0
rtoes 42.1037 -0 0
lowerback 0 0 0
upperback -1.41715 -0.276008 -1.54665
thorax 0 0 0
lowerneck -6.95912 -6.52441 -2.3647
upperneck 0 0 0
head 0 0 0
lclavicle 0 0 0
lhumerus 0 0 0
lradius 0 0 0
lwrist 0 0 0
lhand 0 0 0
lfingers 0 0 0
lthumb 4.21234 26.531 -0.000102443
rclavicle 0 0 0
rhumerus 0 0 0
rradius 0 0 0
rwrist -9.74736 0 0
rhand -26.7617 -33.7284 -0.00489738
rfingers 0 0 0
rthumb 0 0 0
718
root 5.41985 21.4567 8.44214 -160.032 -81.6322 177.325
lfemur 0 0 0
ltibia 0 0 0
lfoot 0 0 0
ltoes 28.6827 -0 0
rfemur 0 0 0
rtibia 0 0 0
rfoot 0 0 0
rtoes 41.5466 -0 0
lowerback 0 0 0
upperback -1.47986 0.186725 -1.53308
thorax 0 0 0
lowerneck -7.01078 -6.57327 -2.31863
upperneck 0 0 0
head 0 0 0
lclavicle 0 0 0
lhumerus 0 0 0
lradius 0 0 0
lwrist 0 0 0
lhand 0 0 0
lfingers 0 0 0
lthumb 4.22256 26.4951 -0.000163471
rclavicle 0 0 0
rhumerus 0 0 0
rradius 0 0 0
rwrist -9.66494 0 0
rhand -26.9011 -33.6026 -0.007815
rfingers 0 0 0
rthumb 0 0 0
719
root 5.38805 21.3894 8.65888 -162.103 -78.9847 179.792
lfemur 0 0 0
ltibia 0 0 0
lfoot 0 0 0
ltoes 28.1538 -0 0
rfemur 0 0 0
rtibia 0 0 0
rfoot 0 0 0
rtoes 40.9106 -0 0
lowerback 0 0 0
upperback -1.55134 0.715087 -1.51821
thorax 0 0 0
lowerneck -7.06981 -6.629 -2.26596
upperneck 0 0 0
head 0 0 0
lclavicle 0 0 0
lhumerus 0 0 0
lradius 0 0 0
lwrist 0 0 0
lhand 0 0 0
lfingers 0 0 0
lthumb 4.23422 26.4541 -0.000225325
rclavicle 0 0 0
rhumerus 0 0 0
rradius 0 0 0
rwrist -9.57083 0 0
rhand -27.0603 -33.4591 -0.0107722
rfingers 0 0 0
rthumb 0 0 0
720
root 5.35273 21.3035 8.87603 -163.389 -76.0484 -178.483
lfemur 0 0 0
ltibia 0 0 0
lfoot 0 0 0
ltoes 27.5696 -0 0
rfemur 0 0 0
rtibia 0 0 0
rfoot 0 0 0
rtoes 40.2081 -0 0
lowerback 0 0 0
upperback -1.63014 1.29872 -1.50254
thorax 0 0 0
lowerneck -7.13509 -6.6905 -2.20771
upperneck 0 0 0
head 0 0 0
lclavicle 0 0 0
lhumerus 0 0 0
lradius 0 0 0
lwrist 0 0 0
lhand 0 0 0
lfingers 0 0 0
lthumb 4.24711 26.4088 -0.000283947
rclavicle 0 0 0
rhumerus 0 0 0
rradius 0 0 0
rwrist -9.46687 0 0
rhand -27.2361 -33.3004 -0.013575
rfingers 0 0 0
rthumb 0 0 0
